<svg xmlns="http://www.w3.org/2000/svg" viewBox="0 0 940.96 108.71"><defs><style>.cls-1{fill:#feca2e;}</style></defs><title>Consumer51Logo</title><g id="Layer_2" data-name="Layer 2"><g id="Layer_1-2" data-name="Layer 1"><g id="Logo_Black" data-name="Logo Black"><g id="Consumer51"><path d="M27.83,101.69A52.23,52.23,0,0,1,7.43,82.36,53.3,53.3,0,0,1,0,54.36a53.3,53.3,0,0,1,7.42-28A52.07,52.07,0,0,1,27.83,7,60.61,60.61,0,0,1,57,0a61.15,61.15,0,0,1,24.68,4.8,49.45,49.45,0,0,1,18.52,13.8L84.61,33Q74,20.76,58.21,20.76A35,35,0,0,0,40.81,25,30.26,30.26,0,0,0,28.89,37a35,35,0,0,0-4.28,17.4,35,35,0,0,0,4.28,17.4A30.46,30.46,0,0,0,40.81,83.69,35.21,35.21,0,0,0,58.21,88Q74,88,84.61,75.51l15.6,14.4a48.8,48.8,0,0,1-18.6,14,61.85,61.85,0,0,1-24.75,4.8A60.51,60.51,0,0,1,27.83,101.69Z"/><path d="M127.58,102.74A39.5,39.5,0,0,1,111.76,88a40.66,40.66,0,0,1-5.7-21.45,40.64,40.64,0,0,1,5.7-21.45,39.57,39.57,0,0,1,15.82-14.78,51.65,51.65,0,0,1,45.68,0A39.79,39.79,0,0,1,189,45.06a40.73,40.73,0,0,1,5.7,21.45A40.75,40.75,0,0,1,189,88a39.86,39.86,0,0,1-15.75,14.78,51.71,51.71,0,0,1-45.68,0Zm37.65-20Q171,76.68,171,66.47T165.23,50.2a19.48,19.48,0,0,0-14.77-6,19.71,19.71,0,0,0-14.85,6.08q-5.85,6.06-5.85,16.27t5.85,16.27a19.78,19.78,0,0,0,14.85,6.08,19.54,19.54,0,0,0,14.77-6.08Z"/><path d="M283.58,34q9.21,9,9.23,26.7v46.2h-23.4V64.26q0-9.6-4.2-14.32t-12.15-4.73q-8.85,0-14.1,5.48T233.71,67v39.9h-23.4V26.16h22.35v9.45a31,31,0,0,1,11.55-7.87A40,40,0,0,1,259.36,25Q274.36,25,283.58,34Z"/><path d="M321.46,105.58q-9.6-2.46-15.3-6.22l7.8-16.8A49.23,49.23,0,0,0,327,88.19a55.12,55.12,0,0,0,15,2.17q14.85,0,14.85-7.35,0-3.45-4.05-5a59.46,59.46,0,0,0-12.45-2.55A121.19,121.19,0,0,1,324,72a25.35,25.35,0,0,1-11.18-6.9q-4.74-5-4.72-14.1a22.07,22.07,0,0,1,4.42-13.58q4.41-5.91,12.9-9.22a54.92,54.92,0,0,1,20-3.3,78.5,78.5,0,0,1,17,1.87,47.72,47.72,0,0,1,14,5.18l-7.8,16.65a46.54,46.54,0,0,0-23.25-6q-7.5,0-11.25,2.1t-3.75,5.4q0,3.75,4.05,5.25a72,72,0,0,0,12.9,2.85,138.34,138.34,0,0,1,16.2,3.52,24.45,24.45,0,0,1,11,6.83q4.65,4.95,4.65,13.8a21.35,21.35,0,0,1-4.5,13.35q-4.5,5.85-13.13,9.07a58.45,58.45,0,0,1-20.34,3.28A78.33,78.33,0,0,1,321.46,105.58Z"/><path d="M474.91,26.16v80.7h-22.2v-9.6a31.27,31.27,0,0,1-11.1,8A35.17,35.17,0,0,1,427.66,108q-15.93,0-25.2-9.15t-9.3-27.13V26.16h23.4v42.2q0,19.5,16.35,19.5,8.37,0,13.5-5.48t5.1-16.27V26.16Z"/><path d="M624.08,33.88Q633,42.82,633,60.66v46.2h-23.4V64.26q0-9.6-4-14.32t-11.32-4.73q-8.26,0-13,5.32t-4.84,15.83v40.5H553.06V64.26q0-19.05-15.3-19.05-8.1,0-12.9,5.32t-4.8,15.83v40.5h-23.4V26.16H519v9.3a29.33,29.33,0,0,1,11-7.8A37,37,0,0,1,544.34,25a34.65,34.65,0,0,1,15.47,3.4,27.52,27.52,0,0,1,11.1,9.83,32.86,32.86,0,0,1,12.52-9.75A39.46,39.46,0,0,1,600,25Q615.16,25,624.08,33.88Z"/><path d="M733.5,73.11h-61A19,19,0,0,0,680.25,85q6.15,4.35,15.3,4.35a31.09,31.09,0,0,0,11.18-1.87,27.36,27.36,0,0,0,9.07-5.93L728.25,95q-11.4,13-33.3,13a52.82,52.82,0,0,1-24.15-5.32,39,39,0,0,1-16.2-14.78,40.66,40.66,0,0,1-5.7-21.45,41.15,41.15,0,0,1,5.63-21.38A39.46,39.46,0,0,1,670,30.23a45.42,45.42,0,0,1,22-5.32A44.87,44.87,0,0,1,713.43,30a37.26,37.26,0,0,1,15.08,14.63A43.59,43.59,0,0,1,734,66.76Q734,67.26,733.5,73.11ZM678.75,47.16a19.09,19.09,0,0,0-6.59,12.3h39.75a19.35,19.35,0,0,0-6.6-12.22,19.69,19.69,0,0,0-13.2-4.58A20.12,20.12,0,0,0,678.75,47.16Z"/><path d="M783.23,28a41.92,41.92,0,0,1,16.42-3v21.6q-3.9-.3-5.25-.3-10,0-15.75,5.62T773,68.76v38.1h-23.4V26.16H771.9V36.81A25.89,25.89,0,0,1,783.23,28Z"/><path class="cls-1" d="M880,50.16q10.56,8.85,10.57,23.7a32.93,32.93,0,0,1-4.8,17.5Q881,99.24,871.13,104t-24.22,4.72a82.92,82.92,0,0,1-21.83-2.92,56.34,56.34,0,0,1-18.22-8.33l9.6-18.6a46.09,46.09,0,0,0,13.8,7,52.63,52.63,0,0,0,16,2.48q9.15,0,14.4-3.6a11.55,11.55,0,0,0,5.25-10,11.33,11.33,0,0,0-5.47-10.2q-5.49-3.45-19-3.45H814.66L820.06,2h64.1V21.36h-43.8l-1.7,20h8.55Q869.41,41.36,880,50.16Z"/><path class="cls-1" d="M941,1.86v105h-24.3V21.36h-21V1.86Z"/></g></g></g></g></svg>